<?xml version="1.0" encoding="UTF-8"?><svg id="Layer_2" xmlns="http://www.w3.org/2000/svg" viewBox="0 0 800.6 371.8"><g id="Layer_1-2"><path d="M387.2,69.4c-3.5-2.5-7.1-5-10.6-7.6-3.2-2.4-6.1-5.3-9.5-7.3-3.3-2-6.2-4.4-9.2-6.6-4.3-3.2-8.7-6.5-13-9.7-5.4-4-10.7-8-16-12-4.1-3.1-8.1-6.1-12.2-9.2-4.2-3.2-8.2-6.7-12.6-9.4-2.8-1.7-4.5-4.6-8.5-5.8,1.6-.8,2.4-1.4,3.4-1.6.9-.2,2,0,3,0,56.6,0,113.2,0,169.9,0,2.3,0,4.5-.2,6.8,1.7-4.1,3.2-8,6.3-12.1,9.3-4.4,3.3-8.9,6.6-13.4,9.8-4.2,3.1-8.4,6.1-12.7,9.2-4.2,3.1-8.5,6.1-12.7,9.2-7.3,5.3-14.2,11.2-21.8,16-2.8,1.8-5.2,4.1-8,6-3.6,2.4-6.8,5.2-10.6,8.2Z" style="fill:#414042; stroke-width:0px;"/><path d="M535.4,199h68.7v20.8h-47.7v22.1h42.3c.8,0,1.7,0,2.5,0,2.2,0,3,.8,3.1,2.8,0,6,0,11.9,0,18.1h-47.8v22.1h47.6v21h-68.6v-106.8Z" style="fill:#5f2c81; stroke-width:0px;"/><path d="M298.6,112.9c15.7-20.7,30.8-40.7,46.1-60.9,2.4,1.6,4.7,3.2,6.9,4.8,6.6,4.7,12.7,9.9,19.4,14.5,4.9,3.3,9.3,7.2,14,10.9,1.4,1.1,2.2,1,3.8,0,4.8-3.4,9.2-7.3,14.2-10.3,3.5-2.2,6.5-5.2,9.8-7.7,4.2-3.1,8.5-6,12.7-9.1,1.2-.9,2.2-1.9,3.5-3,2.3,3.1,4.7,6.3,7.2,9.5-13.7,14.4-19,31.5-16.3,51.3h-121.3Z" style="fill:#414042; stroke-width:0px;"/><path d="M68,282h-35.5c-.7,1.2-1.8,2.3-2.2,3.6-1.5,6.2-4.6,11.8-6.1,18-.3,1.4-.9,2.3-2.6,2.3-7.1,0-14.2,0-21.7,0,13.6-35.9,27-71.3,40.5-106.8h18.7c1.8,4.7,3.7,9.8,5.6,14.8,2,5.2,3.8,10.4,5.8,15.6,2,5,3.8,10.1,5.9,15,2.1,5,3.8,10.1,5.8,15.1,2,5,4.2,9.9,5.9,15,1.8,5.3,3.8,10.4,5.8,15.6,2,5,3.7,10.1,5.6,15.5h-23c-2.8-7.7-5.7-15.7-8.7-23.7ZM49.8,232.5c-3.7,10.1-7.1,19.5-10.6,29.2h21.4c-3.6-9.8-7.1-19.2-10.7-29.2Z" style="fill:#5f2c81; stroke-width:0px;"/><path d="M799.6,213.7c-4.6,5.9-9.1,11.6-13.5,17.3-4.2-3.8-8.2-7.3-13.4-9.3-4-1.5-7.9-3.4-12.3-2.8-2.8.4-5.5,1.1-7.7,3.1-3.6,3.2-3.6,7.8-.5,11.4,1.9,2.2,4.3,3.6,6.7,4.3,4.2,1.2,8,3.2,12.1,4.6,3.3,1.1,6.6,2.6,9.9,3.8,2.3.9,4.5,2.2,6.4,3.8,5,4,10.1,8.3,11.9,14.8,2.1,7.7,2,15.7-1.4,23-2.7,5.7-6.8,10.4-12.8,13.2-3.5,1.6-6.8,3.5-10.7,4.5-6.1,1.6-11.6,1.9-17.5.6-2.3-.5-4.7-.3-7.1-.9-2.4-.7-4.8-1.4-7-2.4-8-3.6-14.9-8.7-20.6-15.8,4.7-5.6,9.5-11.2,14.3-16.9,2.5,2.7,4.9,5.2,7.2,7.8,3.4,3.9,8,5.6,12.6,7,2.5.7,5.2,1.6,8,1.3,3-.3,5.8-1.3,8.6-2.3,3.7-1.3,5.3-4.4,5.4-8.1,0-3.7-2.2-5.9-5.3-7.8-5-2.9-10.3-5-15.7-6.9-8.8-3-16.8-7-23.3-13.9-2.7-2.9-4.9-8.4-5.8-12.6-.5-2.2-1-4.4-.8-6.6.4-7,3.1-13.1,7.7-18.3,3.1-3.5,6.8-6.2,11.1-8.2,2.5-1.2,5.1-1.3,7.5-2.4,1.4-.6,3-.9,4.6-1,2.7-.2,5.4-.5,8,0,5.8,1.2,11.6,2.1,17,4.8,5.1,2.5,9.7,5.6,14.3,8.8.8.5,1.4,1.3,2.1,2.1Z" style="fill:#5f2c81; stroke-width:0px;"/><path d="M617.1,199h23.6c1.2,3.4,2.4,6.6,3.5,9.8,2.3,6.4,4.7,12.7,7,19.1.9,2.6,2.2,5.1,2.9,7.8.7,2.6,1.7,4.9,2.7,7.4,2,5,3.6,10.2,5.4,15.2,1.2,3.3,2.4,6.5,3.8,10.1,2.1-1.6,2.1-3.8,2.7-5.5,3.1-9,6.3-18.1,9.7-27,2.8-7.5,5.1-15.2,8.6-22.4,1.5-3.2,2.1-6.8,3.2-10.2.3-1,.6-2.2,1.2-3,.5-.7,1.6-1.3,2.4-1.3,7.1-.1,14.2,0,21.6,0-13.6,36-27,71.5-40.4,107h-17.6c-2-5.5-4-11.1-6.1-16.7-2.5-6.5-5.4-12.8-7.5-19.4-1.9-6-4.5-11.8-6.7-17.7-2.3-6.4-4.6-12.7-7.2-19-1.6-4-3.2-8-4.6-12.1-1.8-5.2-3.9-10.4-6-15.5-.8-2-1.4-4.1-2.2-6.4Z" style="fill:#5f2c81; stroke-width:0px;"/><path d="M512.1,305.8h-20.7v-2.4c-.4-.1-.7-.4-.9-.3-2.4,1.3-6.2,2.5-8.4,2.8-1.2.2-2.4.8-3.6.9-1.3.2-2.7,0-4,0-7.8.3-14.9-2.1-21.4-6.1-4.8-2.9-9-6.7-11.9-11.7-3.8-6.3-5.9-13.1-6-20.5,0-4.9.3-9.6,2-14.2,1.2-3.2,2.5-6.4,4.9-9,1.4-1.5,2.6-3.2,3.9-4.9,2.6-3.4,6.3-5.7,9.9-7.5,4.5-2.2,9.4-4.4,14.7-4.2,1.5,0,3,0,4.5,0,4.7-.3,9.1.9,13.4,2.8.7.3,1.5.2,2.5.3v-3c7.1-.2,14,0,21-.1v76.9ZM473.7,250c-4.7-.7-8.3,1.5-11.8,4.7-3.7,3.5-5.6,7.5-5.7,12.7-.1,5.3,1.5,9.7,5.3,13.3,3.4,3.2,7.3,5.4,12.3,5.3,10.5-.2,18.1-7.5,18.5-18.2.3-10-9.6-19.1-18.6-17.8Z" style="fill:#5f2c81; stroke-width:0px;"/><path d="M489.4,120.7c-5.3,4-11.3,5.4-17.4,4.2-5.4-1.1-10.7-3.1-14.2-7.8-3.3-4.3-5.4-9.4-5.4-14.7,0-4.8,1.7-9.6,4.6-13.5,3.1-4.2,7.3-7.4,12.3-8.7,5.5-1.5,11.2-1.4,16.7,1.9.1-.9.2-1.7.4-3h10.6c0,1.2.2,2.5.2,3.8,0,8.5,0,17,0,25.5,0,1.6-.4,3.3,1,4.6-.9,2.3,1.4,2.3,2.4,2.8,1.2.6,2.6.6,4-.5,3.1-2.4,4.3-4.8,5.7-9.1,2.4-7.4.7-14.4-2.5-20.7-3.2-6.3-8.1-11.5-15.1-14.7-5.1-2.3-9.9-4-15.4-3.8-1.8,0-3.7.2-5.5,0-3.3-.4-6.3.8-9.1,2.2-3.6,1.8-7.4,3.5-10.4,6.3-5.2,4.7-8.2,10.7-10.1,17.3-1.3,4.5-1.4,11.9,0,16.7,2.4,8.8,4.6,13.1,10.6,18.5,5.2,4.7,11.3,7.9,18.6,8,1.1,0,2.3-.4,3.2.8.1.2.6.2.9.1,4.2-1.3,8.9-.4,12.9-2.7,2.3-1.3,4.7-2.3,7.1-3.5,1.9,3.1,3.8,6.1,5.9,9.5-2.6,2.3-5.8,3.3-8.9,4.7-7.2,3.3-14.7,3.4-22.3,2.8-3.6-.3-7.2-1.7-10.8-2.8-8.3-2.6-14.4-8.2-20-14.4-4.1-4.6-6.3-10.3-8.3-16-2-5.9-2.7-12.1-1.9-18.1,1-7.6,5.2-19.3,12.5-26.8,6.4-6.6,14-10.6,22.5-13.3,2.5-.8,5.3-1.1,7.9-1.4,4.9-.5,9.7.4,14.6,1,1.9.3,3.8,1.2,5.7,1.9,5.4,2.1,10.7,4.5,14.9,8.7,3.4,3.4,6.6,7,9.4,11.1,2.2,3.2,2.5,7,4.4,10.2.5.9.9,2,1,3.1.2,1.3,0,2.7,0,4,0,2-.1,4,0,6,.4,5.4-1.4,10.3-4.1,14.8-2.6,4.3-6.3,7.7-11.1,9.7-.6.2-1.2.3-1.8.4-1.2,0-2.3,0-3.5,0q-7,0-12.4-5.4ZM486.3,96.6c-3.3-3.6-7-6.3-12.1-5.5-3.7.6-7.4,2.3-8.7,5.8-2.2,5.8-2.1,9.3,2.6,13.4.5.4.9,1.1,1.4,1.4,1.1.6,2.2,1.2,3.4,1.3,2,.2,4.1.4,5.9,0,2-.5,4.2-1.5,5.7-2.8,1.4-1.2,1.9-3.1,1.8-5.2-.2-2.8,0-5.6,0-8.4Z" style="fill:#414042; stroke-width:0px;"/><path d="M242.3,305.8h-21c0-12.4,0-24.7,0-37,0-3-.3-5.9-1.2-8.5-1-3-3-5.6-5.9-7.3-6.8-4.1-13.4-1.8-17.8,2.4-2,1.9-3.3,4.5-3.3,7.6,0,14.2,0,28.3,0,42.8-6.9.4-13.8,0-20.8.2v-103.7c6.7-2,13.5-4.5,20.7-6.7v37.2c5.4-2,10.7-3.3,16.2-2.9,7.5.6,14,3.1,19.6,8.2.7.7,1.4,1.5,2.1,2.1,3.9,3.1,6.3,7.2,8.1,11.6.8,2,1.7,4.1,2,6.2.6,4.3,1,8.7,1,13.1.1,11.5,0,23,0,34.7Z" style="fill:#5f2c81; stroke-width:0px;"/><path d="M280,277.9c4.1,5.2,8.7,8.2,15.2,8.1,5.5-.1,10.1-1.7,13.5-6.1.2.1.3.2.4.3,4.7,4.7,9.4,9.4,14.1,14.1-5,6.1-12.1,8.8-19.2,11.3-.9.3-1.9.2-2.9.2-3,0-6,0-9,0-6.7,0-12.6-2.3-18.1-5.8-8.1-5.2-13.2-12.6-15.9-21.8,0-.1-.3-.2-.3-.4-.3-4.8-2.7-9.4-.7-14.5.9-2.5.4-5.6,1.6-8.4,1.3-3.2,2.4-6.4,4.7-9,2.7-3.1,5.5-6.2,8.5-9,1.6-1.5,3.7-2.4,5.5-3.6,2.6-1.8,5.8-2.7,8.6-3.3,4-.8,8.3-2,12.5-1.2,8.6,1.7,16.8,3.9,23.1,10.6,3.2,3.4,6.8,6.6,8.6,11,1.6,3.7,2.7,7.5,3.4,11.7.6,4.1.7,8.1.7,12.1,0,3.2-.4,3.6-3.7,3.6-15,0-30,0-45,0h-5.5ZM310.6,257.3c-3.7-5.9-9.6-7.2-15.6-8.4-5.7,1.5-11.6,2.5-14.9,8.6,6.1.7,26.7.6,30.6-.2Z" style="fill:#5f2c81; stroke-width:0px;"/><path d="M397.3,305.8c0-14.3,0-28.3,0-42.3,0-2.8-1.2-4.8-2.8-6.9-3.7-4.9-8.9-5.2-14.1-4.5-2.8.4-5.4,2.4-7.2,4.8-2.3,3-3.1,6.4-3.1,10.2.1,12.8,0,25.6,0,38.6h-20.9v-76.6h20.8c0,1.2.1,2.3.2,3.8,2.2-.4,4.4-.6,6.4-1.1,5-1.3,9.6-.8,15.2,0,4,.5,6.9,2.7,10.3,4.2,2.8,1.2,5.2,3.2,7.1,5.6,2.1,2.6,4,5.3,5.8,8.1,1.5,2.3,1.4,5.4,3,7.8.4.6,0,1.6,0,2.5,0,14.8,0,29.6,0,44.4,0,.5-.1.9-.2,1.6-7-.1-13.9.2-20.8-.2Z" style="fill:#5f2c81; stroke-width:0px;"/><path d="M133,205.1c1.2.7,1.3,2,1.3,3.4,0,7,0,14,0,21.3h20.9v19h-20.9c0,6.8-.4,13.3.1,19.7.5,5.5,3.2,10,7.9,13.4,3.9,2.7,8,4.5,12.8,3.9v21c-4,0-7.9.2-11.9-1.3-5.8-2.2-11.5-4.2-15.8-8.9-3.4-3.7-7.4-6.8-9.5-11.5-2.6-5.6-4.7-11.3-4.7-17.6,0-16.8,0-33.7,0-50.5s0-2,0-3c-.1-1.9.6-2.7,2.7-3.3,5.7-1.6,11.4-3.7,17.1-5.7Z" style="fill:#5f2c81; stroke-width:0px;"/><path d="M290.4,105.8c-.4-2.7-1-4.6-1-6.4,0-28.3,0-56.7,0-85v-4.2c16.1,12.1,31.4,23.6,46.8,35.2-15,19.8-30.1,39.7-45.7,60.4Z" style="fill:#414042; stroke-width:0px;"/><path d="M437.9,45.7c15.4-11.4,30.5-22.6,46.1-34.1.2,1.2.3,1.9.3,2.7,0,8.8,0,17.6,0,26.4,0,1,.2,2.1-.1,2.9-.2.4-.5,1.5-2.1,1-2.9-.9-6-1.1-9,.2-.7.3-1.6.3-2.4.3-5.1.2-9.8,1.9-14.5,3.4-3.5,1.1-6.3,3.3-9.5,4.7-.8.4-1.8.8-2.6.8-.4,0-.7-1.2-1.1-1.8-1.5-2-3.1-4-5.1-6.5Z" style="fill:#414042; stroke-width:0px;"/><path d="M281.1,370.9c-1,0-1.7,0-2.3,0-.2-.3-.5-.5-.5-.8,0-3.5-.1-7,0-10.5,0-2.5-.4-4.8-2.4-6.6h-8.6v17.8h-2.9v-19.8c2.6-.7,5.4-1.6,8.3-2.1,1.3-.2,2.8.4,4,1,2.7,1.3,5.1.3,7.4-.6,2.8-1.1,5,.5,7.1,1.3,2,.8,3,3.2,3,5.6,0,3.8,0,7.7,0,11.5,0,1.5-.5,2.5-1.8,3.2-1.7-.3-2.3-1.4-2.2-3.1,0-4,0-8,0-12,0-2.1-.8-2.8-2.9-2.9-2,0-3.9,0-6.2,0v18Z" style="fill:#414042; stroke-width:0px;"/><path d="M258.2,343.1v2.7h-13.7v9h11.6c0,1.1,0,2,.1,3h-11.8v9.1c3.7,0,7.3.1,11,0,1.7,0,2.1,1.1,3,1.8-.7,1.7-1.5,2.4-3.1,2.3-4-.1-8,0-12,0-2.4,0-3.1-.7-3.1-3.3,0-8.1,0-16.3,0-24.6h17.9Z" style="fill:#414042; stroke-width:0px;"/><path d="M150.3,355.4c-.8-.8-1.6-1.6-2.5-2.5-1.1,0-2.3,0-3.4,0-3.6,0-4,.4-4,3.8,0,3.7,0,7.3,0,11,0,1.5-.5,2.5-1.8,3.2-2-.4-2.3-1.7-2.3-3.6,0-8.7,0-17.3,0-26.2h3.9v9.7c1.9-.7,3.5-1.5,5.2-1.8,2.7-.5,7.1,2.4,7.9,5.1.5,1.8,1.3,3.5,1.1,5.6-.2,2.8,0,5.7-.1,8.5,0,1-.8,1.9-1.2,2.9-2-.6-2.8-1.4-2.8-3.2.1-4.2,0-8.3,0-12.5Z" style="fill:#414042; stroke-width:0px;"/><path d="M92.8,371.1c3.4-9.9,7.5-18.8,10.7-28.1h3.4c3.1,9.2,8.1,17.8,10.4,27.4-2.1,1.6-2.9.5-3.6-1.3-.8-2.3-1.8-4.6-2.8-7h-11.6c-.7,2.1-1.5,4.3-2.2,6.5-.6,2-.6,2-4.5,2.5ZM101,358.8h8.7c-1.4-3.8-2.6-7.3-4-10.9-2.7,3.2-2.8,7.2-4.7,10.9Z" style="fill:#414042; stroke-width:0px;"/><path d="M313.3,358.6c0-.9,0-1.7,0-2.5-.1-2.4-.8-3.2-3.2-3.1-2.8,0-5.7.4-8.6.6v-2.4c2.1-.7,4.4-1.9,6.8-2.1,2-.1,4.3.7,6.2,1.7,2.2,1.1,2.4,3.7,2.7,5.8.5,2.9.2,6,0,8.9-.1,2.6-2.9,5.3-5.5,5.5-2.3.1-4.7.1-7,0-2.6-.1-5.2-2.9-5.5-5.5-.3-3.3,1.1-6.3,4.2-7.1,3.1-.8,6.3-.9,9.8.3ZM308.5,360.9c-.3,0-.7,0-1,0-3.9,0-4.7.9-4.2,4.6.2,1.4.9,2.4,2.5,2.4,1.7,0,3.3,0,5,0,1.6,0,2.3-1,2.5-2.4,0-.7,0-1.3,0-2-.1-1.7-.9-2.5-2.7-2.6-.7,0-1.3,0-2,0Z" style="fill:#414042; stroke-width:0px;"/><path d="M487.3,353.4c0,5,0,9.8,0,14.6,0,.2,0,.3,0,.5-1.8,1.9-3.9,2.6-6.5,2.5-2.3-.2-4.6,0-6.9,0-1.2-1.2-2.4-2.4-3.6-3.6v-5.8c1.2-1.2,2.4-2.4,3.5-3.7,3.3.4,6.8-.6,10.3.8.6-2.2-.8-3.9-2.3-5.7-1.6,0-3.2-.1-4.9,0-1.4.1-2.7.5-4.6.9,0-.9,0-2,.4-2.9.4-1,1.4-1.1,2.5-1.1,1.3,0,2.4-.4,3.6-.8,1.8-.6,3.9.6,5.6,1.7,1,.6,1.7,1.6,2.7,2.7ZM482.9,367.9c.4-1.1,1.1-2.3,1.3-3.4.4-2.3-.5-3.4-2.8-3.5-1.3,0-2.7,0-4,0-2.2-.2-3.3,1.3-4.1,2.8-.7,1.3.5,2.4,1.5,3.3.4.3.7.7,1,.9h7.1Z" style="fill:#414042; stroke-width:0px;"/><path d="M706.1,367.2c-.2,3.4-.4,3.7-3,3.7-2.8,0-5.6,0-8.4,0-1.6-2.3-3.8-3.7-4.8-6.6-1.5-4.5.2-8.1,1.5-11.9.3-1,1.9-1.6,3-2.1,5.2-2.4,10.1-.5,12.3,4.6.4.9.3,1.9.5,2.8.2,1,.5,2,.8,3.1h-14.3c-1.4,2.2-.3,4.2.7,5.5,1,1.4,3.2,1.9,5.2,1.6,2-.3,4.1-.5,6.4-.8ZM695.7,353c-1.3,1.5-3.3,2.4-2.2,4.7h11.1c-.9-1.8-1.7-3.3-2.4-4.7h-6.5Z" style="fill:#414042; stroke-width:0px;"/><path d="M616.3,361.8h-13.6c-1.1,2.1-.2,4.1.9,5.4,1,1.2,3,1.4,4.8,1.6,2.4.4,4.3-1.5,6.9-1,0,.7.4,1.9,0,2.1-1.1.8-2.4,1.6-3.6,1.7-2.6.3-5.3,0-7.8,0-2.1-2.2-4.3-3.9-5.1-7-1.1-4.3-.3-8.2,1.9-11.8,1-1.7,6.7-3.5,8.5-2.9,4.3,1.4,7,4.3,7.2,7.8,0,1.2,0,2.3,0,4ZM613.9,358.6c-1.1-2-1.9-3.4-2.7-4.7-2.2,0-4.4,0-6.5,0-1.2,1.4-3.3,2.4-2.1,4.7h11.3Z" style="fill:#414042; stroke-width:0px;"/><path d="M222.3,368.5c-4.2,4-9.1,1.8-13.4,2.6-1.2-1.3-2.3-2.5-3.6-3.8v-5.9c1.1-1.1,2.4-2.2,3.7-3.5,3.1.3,6.5-.8,9.9,1.2.9-2.6-.5-4.3-2.3-6.3-2.9.3-6,.5-9.1.8,0-3,.2-3.5,2.6-3.6,1.4,0,2.8-.7,4.1-.8,1.7-.2,3.7.7,5.2,1.6,1.7,1.1,2.8,3,2.8,5.2,0,.2,0,.3,0,.5v12ZM210.8,360.9c-3.6,3-3.4,4.2-.2,6.9h7.3c.5-.8,1-1.5,1.2-2.2,1-3.1-.1-4.6-3.4-4.7-1.7,0-3.3,0-4.9,0Z" style="fill:#414042; stroke-width:0px;"/><path d="M383.8,367.9c1.8,0,3.3.1,4.7,0,1.4-.1,2.7-.5,4.3-.8.8.8.7,1.7,0,2.8-.6.9-1.5,1.1-2.6,1.1-1.8,0-3.7,0-5.5,0-2.7,0-5-1.2-6.1-3.3-1.6-3.1-3.8-6.2-1.7-10.2.8-1.4.6-3.2,1.7-4.8,1.8-2.9,4.6-3.2,7-3.5,2-.3,4.5,1.1,6.4,2.3,1.3.9,2.1,2.6,2.2,4.5,0,1.5.7,3,1.1,4.8h-14.6q-.7,3.6,2.9,7.2ZM382.7,352.9c-1.2,1.4-3.4,2.4-2.1,4.9h10.3c1.3-2.6-1-3.5-2.2-4.9h-6Z" style="fill:#414042; stroke-width:0px;"/><path d="M580.8,342.8c3.7.6,7.6-1,11.2,1.5v3.8c-3-2.8-6.4-2.2-9.7-2.2-1.3,0-2,.9-2.1,2.2-.4,2.9.3,4.3,3.2,5.8,1.4.7,2.8,1.7,4.2,1.8,2.5.1,3.8,1.8,5.1,3.3,1.9,2.2,2,4.3.5,7.9-1.1,2.5-3.2,3.9-6,4-2.9,0-5.8.3-8.6-.9-2.1-.9-2.2-.8-2.1-4.2,3.6,1.6,7.1,2.9,11.6,1.9.5-.7,1.7-1.8,2-3,.7-3.1-.5-4.3-3.6-5.8-2.6-1.2-5.7-1.5-7.9-3.9-3.2-3.6-3.3-6.4,0-9.9.7-.7,1.4-1.4,2.1-2.1Z" style="fill:#414042; stroke-width:0px;"/><path d="M176.1,366.7c.1,1.8.8,2.8-1.3,3.4-3,.9-8.4,1.2-11.2-.2-2.2-1.1-4.3-4.3-4.3-6.7,0-1.8.1-3.7,0-5.5-.2-2.1.6-3.8,1.9-5.2,1.3-1.4,2.4-3.2,4.8-2.7,2-1.8,4.1.2,6.1.1.9,0,2,1.1,2.6,1.9,1,1.4,1.9,2.9,2.4,4.4.4,1.3,0,2.9,0,4.5h-14.5c-1.3,1.7,0,2.9.5,4,.6,1.1,1.5,2,2.3,3,2,0,3.8.1,5.6,0,1.5-.2,3-.7,4.9-1.2ZM173,357.7c1-2.6-1.1-3.5-2.3-4.7h-6.4c-.7,1.4-1.5,2.9-2.4,4.7h11.1Z" style="fill:#414042; stroke-width:0px;"/><path d="M362.4,370.8c-3.3-8.6-6.7-17.4-10.1-26.1-.2-.4,0-.9,0-1.5,1.9-.6,3.4-.3,3.9,1.7,1.2,5.3,4,10,5.6,15.2.5,1.6,1.1,3.2,1.9,5.5,3.6-7.6,5.9-15.1,8.8-22.5h3.6c-.2.4-.4.6-.5,1-1.7,5.1-3.9,10.1-6,15-1.3,3.1-2.4,6.4-3.4,9.6-.6,2-1.8,2.5-3.9,2.1Z" style="fill:#414042; stroke-width:0px;"/><path d="M526.8,371.1c-1.4-.2-2.9-.1-4.3-.5-3.3-.9-4.5-4.1-5-6.7-.5-2.9-.6-6,.6-9.1.6-1.5,1.3-2.8,2.4-3.4,1.8-1.1,4-2.2,6-2.2,2.2,0,4.5,1.1,6.5,2.2,1.6.8,2,2.6,2.6,4.4,1.4,4.4,1,8.4-1.3,12.3-.5.8-4.1,2.9-5,2.9-.8,0-1.7,0-2.5,0,0,0,0,0,0,.1ZM523.8,352.9c-2.9,2.3-3.9,5.4-3.4,8.6.3,1.9.7,3.9,2.4,5.5,1.5,1.4,3.1.7,4.6.9.8,0,1.6,0,1.5,0,3.5-1.1,3.2-3.8,4.3-5.7.6-1,.5-2.8,0-3.8-1-1.9-1-4.5-3.6-5.5h-5.7Z" style="fill:#414042; stroke-width:0px;"/><path d="M199.2,353.4v17.4h-2.5c0,0-.4-.3-.4-.6,0-3.8-.2-7.7,0-11.5.2-2.6-.6-4.4-2.7-5.7h-7.4c0,4.8,0,9.6,0,14.4,0,1.8,0,1.8-1.8,3.6-1.9-.3-2.2-1.5-2.2-3.2,0-5.5,0-11,0-16.6,1.9-.4,3.7-.9,5.5-1.2,1.8-.3,3.3-1.7,5.4-.7,2.8,1.3,2.9,1,6,4.1Z" style="fill:#414042; stroke-width:0px;"/><path d="M558.1,353.3v17.5h-2.7v-14.9c-2.6-4.5-6.6-2.5-10.2-3.1,0,5.1,0,9.9,0,14.7,0,1.6-.3,2.9-2,3.4-1.4-.4-2-1.3-2-2.9,0-5.6,0-11.3,0-16.9,2-.4,4-.5,5.7-1.3,4.9-2.2,8.2.1,11.2,3.4Z" style="fill:#414042; stroke-width:0px;"/><path d="M498.3,344.4v5.3c1.6,0,3.1.2,4.9.3v2.8h-4.9c0,4.1,0,8,0,11.8,0,2.6.5,3.1,3.5,3.3.3,0,.7,0,1,0,.1,0,.2.2.4.4,0,.4,0,.9,0,1.4,0,.3-.1.6-.3,1h-5.3c-2.5-1.8-3.5-4.7-3.4-8,0-3.1,0-6.3,0-9.6h-2.8c0-1.1-.2-2-.3-3h2.5c.3-.4.5-.7.6-1,0-.8,0-1.7,0-2.5.2-2.3.9-2.6,4-2.2Z" style="fill:#414042; stroke-width:0px;"/><path d="M465.1,369.5c-2.7,2.1-6,1.6-9.1,1.3-3-.3-6.3-5-6.7-8.4-.3-2.8.5-5.4,1.1-8,.4-1.8,3.9-4.1,6-4.5,1.5-.3,3.5-1.4,4.4-.8,1.4,1,2.8.4,4.4.9v3.7c-2.8-1.5-5.8-1.2-8.5-.5-1.8.4-3.4,2-3.4,4.4,0,2.2,0,4.3,0,6.5,1.1,2.1,3.1,3.4,5.2,3.6,2.1.3,4.3-.5,6.6-.8v2.6Z" style="fill:#414042; stroke-width:0px;"/><path d="M635.4,350.1h3.5c2.2,5.1,4.4,10.3,6.6,15.7,2.4-.8,1.5-3.4,2.6-4.9,1-1.5,1.4-3.4,2.1-5.1.7-1.9,1.5-3.7,2.3-5.7h3.3c0,.2.2.5,0,.7-1.5,3.5-3.5,6.9-4.6,10.5-.8,2.8-3.1,5-3.3,8.2-.1,1.8-3.1,2.1-4.3.5-.6-.9-1.2-1.8-1.5-2.8-2-5.8-4.6-11.2-6.8-17Z" style="fill:#414042; stroke-width:0px;"/><path d="M677.4,368.1c2.2-.3,4.9-.7,7.7-1.2v2.6c-3.3,1.5-6.7,2.2-10.4.3-3.5-1.7-5.6-4.2-5.5-8.2,0-2.4,0-4.7.9-7.1.7-1.8,1.5-3.1,3.3-3.7,2.5-.9,4.7-3.3,7.8-1.1.9.6,2.5,0,3.9,0v3.6c-3.1-1.2-6.3-.4-8.8-.6-3.2,1-2.8,3.8-4,5.6-.5.7-.3,2,0,2.9.9,2.4,1.9,4.8,5.1,6.7Z" style="fill:#414042; stroke-width:0px;"/><path d="M427.4,352.9h-4v-2.9c1.1,0,2.4-.1,3.8-.2.2-3.2-.6-6.8,3.7-7.9,2-.5,4.2-2.4,5.6,1.4-1.5,1.3-4.5,0-5.2,2.8-.3,1.1-.8,2.2-1.3,3.7h6.2c0,1.1,0,2,.1,3.1h-6v18h-2.9v-17.9Z" style="fill:#414042; stroke-width:0px;"/><path d="M131.2,349.9v3h-4.9c0,3.9,0,7.9,0,11.8,0,2.4.6,2.9,3.1,3.2.5,0,1,0,1.5.1.1,0,.2.2.4.3,0,.2,0,.3,0,.5,0,.5,0,1,0,1.5-.2.2-.5.6-.7.6q-4.6.1-7.3-2.6v-15.2c-1.2,0-2.5-.2-3.8-.3v-2.8h3.8v-5.9h2.9c0,1.7.2,3.6.3,5.8h4.8Z" style="fill:#414042; stroke-width:0px;"/><path d="M336.3,341.8c0,8.9,0,17.1,0,25.4,0,1.6-.1,2.9-1.8,3.7-1.5-.4-2.3-1.3-2.2-3.1,0-7.6,0-15.2,0-22.8,0-.6,0-1.3.3-1.9.2-.4.6-.9,1-1,.7-.2,1.5-.2,2.7-.3Z" style="fill:#414042; stroke-width:0px;"/><path d="M633.4,351.1c-1.9,3.4-5.3,1.1-8.1,2.2,0,4.8,0,9.8,0,14.7,0,1.5-.6,2.4-1.9,3-1.9-.3-2.2-1.6-2.2-3.2,0-5.1,0-10.2,0-15.3,1.6-1.6,3.3-2.6,5.6-2.5.9,0,1.8-.4,2.7-.7q1.7-.5,3.9,1.9Z" style="fill:#414042; stroke-width:0px;"/><path d="M403.3,370.8h-2.9v-19.5c2.5-1.7,5.8-.8,8.4-2.3,1.1-.6,2,.6,2.5,3.7h-8.1v18.1Z" style="fill:#414042; stroke-width:0px;"/><path d="M417.6,371.1c-1.7-.7-2.4-1.5-2.4-3.1,0-5.9,0-11.9,0-17.9h4c0,6.1,0,12.3,0,18.6,0,.9-1.1,1.7-1.6,2.5Z" style="fill:#414042; stroke-width:0px;"/><path d="M508.3,350h4c0,6.1,0,12.2,0,18.3,0,.9-.8,1.9-1.3,2.8-2.1-.5-2.7-1.5-2.7-3.2,0-5.8,0-11.6,0-17.8Z" style="fill:#414042; stroke-width:0px;"/><path d="M662.6,371.1c-1.7-.7-2.4-1.5-2.4-3.1,0-5.9,0-11.9,0-17.9h4c0,6.1,0,12.3,0,18.6,0,.9-1.1,1.7-1.6,2.5Z" style="fill:#414042; stroke-width:0px;"/><path d="M441.4,350h2.7v20.8h-2.7v-20.8Z" style="fill:#414042; stroke-width:0px;"/><path d="M323.4,350h2.7v20.8h-2.7v-20.8Z" style="fill:#414042; stroke-width:0px;"/><path d="M444,347q-3.4-.5-3.6-3.9h3.6v3.9Z" style="fill:#414042; stroke-width:0px;"/><path d="M415.3,343h3.6c1,1.9.2,3-1.4,4-1.9-.4-2.5-1.7-2.1-4Z" style="fill:#414042; stroke-width:0px;"/><path d="M660.3,343h3.6c.9,1.9.1,3-1.3,4-2-.5-2.6-1.7-2.3-4Z" style="fill:#414042; stroke-width:0px;"/><path d="M512.1,343.1c.5,2,0,3.3-1.8,3.9-1.8-.7-2.4-2-1.7-3.9h3.5Z" style="fill:#414042; stroke-width:0px;"/><path d="M323.4,343h2.7v3.8h-2.7v-3.8Z" style="fill:#414042; stroke-width:0px;"/></g></svg>