<svg id="fa6f2cae-8bd4-4b58-a05c-6d3c25d5f21d" data-name="Layer 1" xmlns="http://www.w3.org/2000/svg" viewBox="0 0 450 100"><defs><style>.b04e98c3-a36e-4ea5-b632-5b07693982fd{fill:#ffcb60;}.e8555a26-adbc-470a-a4e6-7f38a4c1f206{fill:#7e61ff;}.a5bf19ed-da39-4428-b91e-e045b913ca4b{fill:#ff5f7d;}.b8a0093c-428e-406a-b4d2-67cee71f23c2{fill:#5a3dbe;}.a5de9b20-22fe-4eec-94d4-6bbc1d96b152{fill:#5fd7aa;}.e5e9e093-4784-4dc5-8d2b-f36120abe7e6{fill:#3fb3a3;}.ebc8ac07-c5eb-45de-a9c6-f5b8018546ee{fill:#ff9c5b;}.a332d5b6-2711-40a1-9d26-c47fb5315c65{fill:#33205e;}</style></defs><path class="b04e98c3-a36e-4ea5-b632-5b07693982fd" d="M50,88.88913V100A49.67168,49.67168,0,0,1,14.64445,85.35586,50.17276,50.17276,0,0,1,6.68222,75.01164l9.64666-5.56877A38.90911,38.90911,0,0,0,50,88.88913Z"/><path class="e8555a26-adbc-470a-a4e6-7f38a4c1f206" d="M93.32074,24.99205l-9.64446,5.57027a38.91373,38.91373,0,0,0-33.674-19.45145V0A49.67164,49.67164,0,0,1,85.35778,14.64415,50.28143,50.28143,0,0,1,93.32074,24.99205Z"/><path class="a5bf19ed-da39-4428-b91e-e045b913ca4b" d="M50.00224,0V11.11087a38.91355,38.91355,0,0,0-33.674,19.444L6.68373,24.98468a50.23912,50.23912,0,0,1,7.963-10.34053A49.6717,49.6717,0,0,1,50.00224,0Z"/><path class="b8a0093c-428e-406a-b4d2-67cee71f23c2" d="M100,50a49.858,49.858,0,0,1-4.17037,20.05186v.00737l-9.71852-5.61479A38.87822,38.87822,0,0,0,83.674,30.563l9.64445-5.57038A49.657,49.657,0,0,1,100,50Z"/><path class="a5de9b20-22fe-4eec-94d4-6bbc1d96b152" d="M95.82963,70.05923a49.66822,49.66822,0,0,1-5.57039,9.60743L72.91106,69.65183A12.52309,12.52309,0,0,1,66.66667,58.8222V50.24441A16.66311,16.66311,0,0,0,35.5778,41.66667l-9.62963-5.563A27.7777,27.7777,0,0,1,77.77778,50v6.74072a5.02024,5.02024,0,0,0,2.49629,4.33336l5.837,3.37036Z"/><path class="e5e9e093-4784-4dc5-8d2b-f36120abe7e6" d="M65.22967,73.22962A27.77829,27.77829,0,0,1,25.94817,36.1037l9.62963,5.563a16.54925,16.54925,0,0,0-2.19256,9.71851A16.71849,16.71849,0,0,0,50.26666,66.66667a14.47866,14.47866,0,0,0,3.25186-.31852,17.03968,17.03968,0,0,0,4.81481-1.926Z"/><polygon class="a5de9b20-22fe-4eec-94d4-6bbc1d96b152" points="95.83 70.052 95.83 70.059 86.111 64.444 95.83 70.052"/><path class="ebc8ac07-c5eb-45de-a9c6-f5b8018546ee" d="M11.11111,50.00107a38.64293,38.64293,0,0,0,5.21777,19.4418L6.68222,75.01164a50.14459,50.14459,0,0,1,.00445-50.02782l9.64444,5.571A38.63851,38.63851,0,0,0,11.11111,50.00107Z"/><path class="a332d5b6-2711-40a1-9d26-c47fb5315c65" d="M137.10074,58.57527c0,1.23348,0,4.23916,1.77288,5.85733a5.41772,5.41772,0,0,0,3.93044,1.31014,5.61084,5.61084,0,0,0,3.23634-.92477,4.19265,4.19265,0,0,0,1.69622-2.31226h13.87222a16.13517,16.13517,0,0,1-3.77573,6.2434c-4.39317,4.54719-10.86725,5.47195-14.9524,5.47195-7.24483,0-11.25193-2.775-13.17951-4.54718C127.467,67.51562,125,63.66184,125,57.49648a19.57054,19.57054,0,0,1,5.62666-14.25829c3.005-2.929,7.70617-5.472,14.71964-5.472,6.47407,0,10.55922,2.31227,13.0262,4.77855,3.54437,3.54507,4.62315,8.63164,4.62315,13.10217,0,1.00142-.07666,2.00355-.15332,2.92832Zm12.8701-7.16748a6.07723,6.07723,0,0,0-1.77288-4.08515,5.85331,5.85331,0,0,0-4.0071-1.38681,6.30544,6.30544,0,0,0-4.39317,1.69553,7.56862,7.56862,0,0,0-1.84954,3.77643Z"/><path class="a332d5b6-2711-40a1-9d26-c47fb5315c65" d="M181.18439,38.76836l-1.00213,4.62384c3.77713-4.16181,6.93681-5.626,11.56-5.626,5.08727,0,7.78422,1.54152,10.01983,5.93469,3.93044-4.31652,7.70757-5.93469,12.79344-5.93469,6.93681,0,11.17528,3.93044,11.17528,10.01914a54.23492,54.23492,0,0,1-.61605,7.32149l-2.31227,18.11208H210.16232l2.0809-16.80124c.15471-1.31084.30942-3.00636.30942-3.62241,0-2.775-1.61956-4.47053-4.23986-4.47053-4.08375,0-5.78,2.23492-6.55073,8.47832l-2.00424,16.41586H187.041l2.23561-17.95737a24.0953,24.0953,0,0,0,.23137-2.929c0-2.46629-1.54151-4.0078-4.16181-4.0078-3.69907,0-5.70332,2.69765-6.39742,8.47832l-2.00424,16.41586H164.22914l4.23846-34.45058Z"/><path class="a332d5b6-2711-40a1-9d26-c47fb5315c65" d="M270.43046,38.76836,266.192,73.21894H253.47521l.92407-3.77643c-3.93044,3.54507-6.9368,4.77855-11.71466,4.77855-8.70969,0-14.33495-6.32006-14.33495-16.26254,0-11.63731,7.70617-20.19229,18.11208-20.19229,4.85451,0,7.4748,1.15614,11.17527,4.93257l.07666-3.93044ZM256.24882,54.95285c0-4.39317-2.62029-7.16748-6.7821-7.16748-4.62454,0-8.1689,4.0078-8.1689,9.24838,0,4.39317,2.69695,7.24483,6.93541,7.24483C252.85777,64.27858,256.24882,60.34814,256.24882,54.95285Z"/><path class="a332d5b6-2711-40a1-9d26-c47fb5315c65" d="M288.54254,38.76836l-4.23986,34.45058H271.5859l4.23986-34.45058Zm-5.16393-21.27177a6.93646,6.93646,0,1,1-6.93681,6.93611A6.90737,6.90737,0,0,1,283.37861,17.49659Z"/><path class="a332d5b6-2711-40a1-9d26-c47fb5315c65" d="M308.2714,17.03386l-6.93681,56.18508H288.61781l6.9368-56.18508Z"/><path class="a332d5b6-2711-40a1-9d26-c47fb5315c65" d="M348.88734,38.76836l-4.23846,34.45058H331.93209l.92407-3.77643c-3.93044,3.54507-6.93681,4.77855-11.71466,4.77855-8.70969,0-14.335-6.32006-14.335-16.26254,0-11.63731,7.70618-20.19229,18.11209-20.19229,4.85451,0,7.4748,1.15614,11.17527,4.93257l.07665-3.93044ZM334.7057,54.95285c0-4.39317-2.62029-7.16748-6.7821-7.16748-4.62454,0-8.1689,4.0078-8.1689,9.24838,0,4.39317,2.69695,7.24483,6.93541,7.24483C331.31465,64.27858,334.7057,60.34814,334.7057,54.95285Z"/><path class="a332d5b6-2711-40a1-9d26-c47fb5315c65" d="M369.695,17.03386l-3.23634,26.05031c4.08375-3.85378,7.39814-5.31794,11.79132-5.31794,8.40166,0,14.2583,6.70545,14.2583,16.49322,0,11.71466-7.39815,19.96161-17.726,19.96161-5.24059,0-8.09225-1.31014-11.86937-5.62666l-.15471,4.62454H350.04138l6.93681-56.18508Zm9.86512,37.919c0-4.39317-2.62029-7.16748-6.7821-7.16748-4.70119,0-8.1689,4.0078-8.1689,9.24838,0,4.39317,2.697,7.24483,6.85876,7.24483C376.16905,64.27858,379.5601,60.34814,379.5601,54.95285Z"/><path class="a332d5b6-2711-40a1-9d26-c47fb5315c65" d="M413.39255,17.03386l-6.93681,56.18508H393.739l6.93681-56.18508Z"/><path class="a332d5b6-2711-40a1-9d26-c47fb5315c65" d="M424.10509,58.57527c0,1.23348,0,4.23916,1.77288,5.85733a5.41776,5.41776,0,0,0,3.93044,1.31014,5.61084,5.61084,0,0,0,3.23634-.92477,4.1926,4.1926,0,0,0,1.69622-2.31226H448.6132a16.1185,16.1185,0,0,1-3.77574,6.2434c-4.39317,4.54719-10.86724,5.47195-14.95239,5.47195-7.24483,0-11.25193-2.775-13.17952-4.54718-2.23422-2.15826-4.7012-6.012-4.7012-12.1774A19.57054,19.57054,0,0,1,417.631,43.23819c3.005-2.929,7.70618-5.472,14.71964-5.472,6.47408,0,10.55923,2.31227,13.0262,4.77855C448.92122,46.08985,450,51.17642,450,55.647c0,1.00142-.07666,2.00355-.15332,2.92832Zm12.8701-7.16748a6.07723,6.07723,0,0,0-1.77288-4.08515,5.85329,5.85329,0,0,0-4.0071-1.38681,6.30544,6.30544,0,0,0-4.39317,1.69553,7.56862,7.56862,0,0,0-1.84954,3.77643Z"/></svg>