<svg id="eedd4ba8-ab5b-41ac-b302-68d96563315d" data-name="Content" xmlns="http://www.w3.org/2000/svg" width="100" height="100" viewBox="0 0 100 100">
  <defs>
    <style>
      .\36 8420730-f078-4e53-92dc-05523b33ff38 {
        fill: #8cc84b;
      }
    </style>
  </defs>
    <g>
    <path class="68420730-f078-4e53-92dc-05523b33ff38" d="M46,2.05a8.18,8.18,0,0,1,8,0L90.66,22.74a7.57,7.57,0,0,1,3.81,6.5V70.76a7.64,7.64,0,0,1-4.1,6.64L53.86,98a8,8,0,0,1-8.12-.22c-3.64-2.12-7.3-4.22-11-6.34a6.3,6.3,0,0,1-2.11-1.52c.46-.63,1.29-.71,2-1a25,25,0,0,0,4.32-2A1,1,0,0,1,40.1,87c3.12,1.79,6.21,3.63,9.34,5.4.67.39,1.35-.12,1.92-.44Q69.29,81.83,87.21,71.72a1.2,1.2,0,0,0,.65-1.17q0-20.55,0-41.1a1.29,1.29,0,0,0-.77-1.28L50.71,7.66a1.27,1.27,0,0,0-1.42,0Q31.09,17.92,12.9,28.18a1.27,1.27,0,0,0-.77,1.27q0,20.55,0,41.1a1.15,1.15,0,0,0,.66,1.15c3.24,1.84,6.48,3.66,9.72,5.49a7.53,7.53,0,0,0,6.08.82,4.63,4.63,0,0,0,3-4.34c0-13.61,0-27.23,0-40.85a1,1,0,0,1,1.12-1.05c1.55,0,3.11,0,4.67,0a1.07,1.07,0,0,1,1,1.24c0,13.71,0,27.41,0,41.12,0,3.65-1.49,7.62-4.87,9.41-4.16,2.16-9.31,1.7-13.42-.37-3.56-1.78-7-3.87-10.45-5.78a7.61,7.61,0,0,1-4.1-6.64V29.24a7.58,7.58,0,0,1,4-6.58Z"/>
    <path class="68420730-f078-4e53-92dc-05523b33ff38" d="M56.61,30.81c5.31-.34,11-.2,15.77,2.41a12,12,0,0,1,5.81,10.32,1.1,1.1,0,0,1-1.21.82c-1.54,0-3.08,0-4.62,0a1.18,1.18,0,0,1-1.12-1.15,7,7,0,0,0-3.36-4.86C65,36.91,61.74,37,58.64,37c-2.26.12-4.69.31-6.6,1.64a4.19,4.19,0,0,0-1.4,4.68c.5,1.18,1.86,1.55,3,1.9C60,46.92,66.78,46.75,73.06,49c2.6.9,5.14,2.65,6,5.37a11.48,11.48,0,0,1-1.94,10.93,15.32,15.32,0,0,1-8.23,4.43,39.45,39.45,0,0,1-12.41.53c-3.88-.45-7.92-1.47-10.92-4.11a11.49,11.49,0,0,1-3.69-9A1,1,0,0,1,43,56.15c1.55,0,3.1,0,4.65,0a1.09,1.09,0,0,1,1.11,1.07,7.06,7.06,0,0,0,2.62,5c3.16,2,7.11,1.9,10.72,2,3-.14,6.35-.18,8.79-2.15a4.85,4.85,0,0,0,1.32-4.64c-.38-1.37-1.81-2-3-2.43-6.32-2-13.17-1.27-19.42-3.53-2.54-.89-5-2.59-6-5.2a10.68,10.68,0,0,1,2.13-11.09c2.8-2.81,6.83-3.89,10.67-4.28Z"/>
  </g>
</svg>
