<svg xmlns="http://www.w3.org/2000/svg" xmlns:xlink="http://www.w3.org/1999/xlink" width="100" height="100" viewBox="0 0 100 100">
  <defs>
    <style>
      .\34 98fe905-0693-4981-8d61-fdf638f6a3e0 {
        fill: url(#c22ba639-2004-4242-9f0e-909a58638e9b);
      }

      .be97b37e-2eab-45ed-a8f7-33c44d10fac3 {
        fill: url(#9a036cae-d18f-4858-969a-752e30c45468);
      }
    </style>
    <linearGradient id="c22ba639-2004-4242-9f0e-909a58638e9b" x1="17" y1="-89.17" x2="17.02" y2="-89.19" gradientTransform="matrix(1849.27, 0, 0, -1853.39, -31419.13, -165240.16)" gradientUnits="userSpaceOnUse">
      <stop offset="0" stop-color="#387eb8"/>
      <stop offset="1" stop-color="#366994"/>
    </linearGradient>
    <linearGradient id="9a036cae-d18f-4858-969a-752e30c45468" x1="16.66" y1="-88.84" x2="16.69" y2="-88.86" gradientTransform="matrix(1849.27, 0, 0, -1853.39, -30774.66, -164612.8)" gradientUnits="userSpaceOnUse">
      <stop offset="0" stop-color="#ffe052"/>
      <stop offset="1" stop-color="#ffc331"/>
    </linearGradient>
  </defs>
    <g id="af9a0e34-3a87-4f66-af05-5e204579b9be" data-name="Content">
    <g>
      <path class="498fe905-0693-4981-8d61-fdf638f6a3e0" d="M49.71,10.21c-20.31,0-19,8.81-19,8.81l0,9.12H50.07v2.74H23s-13-1.47-13,19S21.34,69.66,21.34,69.66h6.77V60.15s-.36-11.34,11.16-11.34H58.5S69.3,49,69.3,38.37V20.83S70.94,10.21,49.71,10.21ZM39,16.34a3.48,3.48,0,0,1,3.48,3.48h0A3.48,3.48,0,0,1,39,23.32h0a3.48,3.48,0,0,1-3.49-3.48h0A3.5,3.5,0,0,1,39,16.34Z"/>
      <path class="be97b37e-2eab-45ed-a8f7-33c44d10fac3" d="M50.29,89.79c20.31,0,19-8.81,19-8.81l0-9.12H49.93V69.12H77s13,1.48,13-19S78.66,30.34,78.66,30.34H71.89v9.51s.36,11.34-11.16,11.34H41.5S30.7,51,30.7,61.63V79.17S29.06,89.79,50.29,89.79ZM61,83.66a3.48,3.48,0,0,1-3.48-3.48h0A3.49,3.49,0,0,1,61,76.68h0a3.48,3.48,0,0,1,3.49,3.48h0A3.49,3.49,0,0,1,61,83.66Z"/>
    </g>
  </g>
</svg>
